<svg xmlns="http://www.w3.org/2000/svg" width="321.56" height="134.51" viewBox="0 0 321.56 134.51"><defs><style>.cls-1{fill:#21bdc4;}.cls-2{fill:#00b7bf;}</style></defs><title>logo-opp</title><g id="Capa_2" data-name="Capa 2"><g id="Capa_10" data-name="Capa 10"><path class="cls-1" d="M30.3,43.14a8.59,8.59,0,0,1-4.94-1.42,11.19,11.19,0,0,1-3.47-3.83,19,19,0,0,1-2.05-5.57,31.23,31.23,0,0,1-.68-6.67A31.56,31.56,0,0,1,19.88,19,21.81,21.81,0,0,1,22.1,13a13.82,13.82,0,0,1,3.77-4.43,8.81,8.81,0,0,1,5.46-1.72,8,8,0,0,1,5.15,1.65,11.88,11.88,0,0,1,3.31,4.29,21.88,21.88,0,0,1,1.77,5.9,40,40,0,0,1,.54,6.53,31.7,31.7,0,0,1-.72,6.88,19.29,19.29,0,0,1-2.19,5.71,11.66,11.66,0,0,1-3.69,3.91A9.24,9.24,0,0,1,30.3,43.14Zm.56-26a2,2,0,0,0-1.51.7,5.67,5.67,0,0,0-1.05,1.84,12.27,12.27,0,0,0-.61,2.57,22.76,22.76,0,0,0-.18,2.86,25.64,25.64,0,0,0,.21,3.27,16.47,16.47,0,0,0,.63,2.94,6.43,6.43,0,0,0,1,2.1,1.91,1.91,0,0,0,1.52.79,1.82,1.82,0,0,0,1.63-1,9,9,0,0,0,1-2.47,18.15,18.15,0,0,0,.46-3c.08-1,.12-1.88.12-2.57a22.8,22.8,0,0,0-.16-2.66,14,14,0,0,0-.54-2.58,6.27,6.27,0,0,0-1-2A1.88,1.88,0,0,0,30.86,17.12Z"/><path class="cls-1" d="M65.32,14a11.22,11.22,0,0,1-1.58,5.86,13.82,13.82,0,0,1-4.25,4.4,6.87,6.87,0,0,1,2.43,1,6.22,6.22,0,0,1,1.7,1.65,7.66,7.66,0,0,1,1,2.22A9.53,9.53,0,0,1,65,31.72a8.65,8.65,0,0,1-1.24,4.64,10.45,10.45,0,0,1-3.19,3.26,14.64,14.64,0,0,1-4.36,1.91,18.86,18.86,0,0,1-4.78.63A17.63,17.63,0,0,1,48.82,42a10.51,10.51,0,0,1-2.48-.65c-.28-.09-.51-.47-.7-1.14a16.84,16.84,0,0,1-.44-2.45c-.11-1-.19-2-.26-3.12s-.1-2.19-.13-3.22-.05-1.93-.05-2.7V23.77c0-1.11,0-2.2.09-3.29,0-.28,0-.72,0-1.31s0-1.25.05-2,0-1.5.1-2.31.1-1.56.18-2.26a11.32,11.32,0,0,1,.33-1.79A1.7,1.7,0,0,1,46,9.89,21,21,0,0,1,48.4,8.56a24.55,24.55,0,0,1,2.7-1.09,24.18,24.18,0,0,1,2.8-.75,14.08,14.08,0,0,1,2.66-.28,11.57,11.57,0,0,1,3.33.49,8.23,8.23,0,0,1,2.8,1.47,7.49,7.49,0,0,1,1.91,2.4A7.09,7.09,0,0,1,65.32,14Zm-7.74,2.48a1.37,1.37,0,0,0-.49-1.17A2,2,0,0,0,55.81,15a4.18,4.18,0,0,0-2.61,1,1.77,1.77,0,0,0-.26.79,14.08,14.08,0,0,0-.18,1.47c0,.55-.08,1.06-.1,1.54s0,.8,0,1v.3c0,.14,0,.29,0,.44a3.66,3.66,0,0,0,.07.42c0,.13.08.19.14.19a2.85,2.85,0,0,0,1.63-.58A6.93,6.93,0,0,0,56,20.08a9.14,9.14,0,0,0,1.12-1.84A4.36,4.36,0,0,0,57.58,16.52ZM57.4,30a1.2,1.2,0,0,0-.56-1.12,2.46,2.46,0,0,0-1.26-.32,3.58,3.58,0,0,0-1.38.3,4.14,4.14,0,0,0-1.19.72.76.76,0,0,0-.21.47,6.47,6.47,0,0,0-.09.81c0,.3,0,.58-.05.84s0,.45,0,.54v.37c0,.19,0,.38,0,.59a3,3,0,0,0,.1.55c0,.18.1.26.16.26a3.41,3.41,0,0,0,1.44-.37,7,7,0,0,0,1.47-.93A5.08,5.08,0,0,0,57,31.41,2.66,2.66,0,0,0,57.4,30Z"/><path class="cls-1" d="M82.67,8.87A2.79,2.79,0,0,1,82,10.73,5.69,5.69,0,0,1,80.38,12c-.56.34-1.13.71-1.72,1.09A11,11,0,0,0,77,14.44a6.28,6.28,0,0,0-1.22,1.61,4.24,4.24,0,0,0-.46,2,3.45,3.45,0,0,0,.46,1.78A9.9,9.9,0,0,0,77,21.39c.45.51.94,1,1.49,1.58a12.69,12.69,0,0,1,1.49,1.82,10.63,10.63,0,0,1,1.14,2.26A8.47,8.47,0,0,1,81.55,30a8.36,8.36,0,0,1-.49,2.64,17.8,17.8,0,0,1-1.33,3,21.2,21.2,0,0,1-2,2.89A19.14,19.14,0,0,1,75.32,41a12.19,12.19,0,0,1-2.68,1.77,6.19,6.19,0,0,1-2.7.68,4.32,4.32,0,0,1-2.57-.79,2.74,2.74,0,0,1-1.12-2.38,4,4,0,0,1,.52-2A9.77,9.77,0,0,1,68,36.52a18.19,18.19,0,0,1,1.65-1.63c.61-.53,1.16-1.06,1.66-1.59a10.62,10.62,0,0,0,1.26-1.65,3.58,3.58,0,0,0,.51-1.85,5,5,0,0,0-1-2.77c-.63-1-1.34-1.93-2.12-2.94A32.72,32.72,0,0,1,67.91,21a6.13,6.13,0,0,1-1-3.22A9.67,9.67,0,0,1,68,13.55,16.94,16.94,0,0,1,70.78,9.5a15.93,15.93,0,0,1,3.77-3.06A8.36,8.36,0,0,1,78.7,5.23a4.21,4.21,0,0,1,2.8,1A3.28,3.28,0,0,1,82.67,8.87Z"/><path class="cls-1" d="M104.63,34.28a3.55,3.55,0,0,1-.47,1.73A6.59,6.59,0,0,1,102,37.87a33.19,33.19,0,0,1-3.82,2c-1.4.64-2.75,1.18-4.06,1.63a10.08,10.08,0,0,1-2.89.68,4.71,4.71,0,0,1-1.54-.31,12.25,12.25,0,0,1-1.77-.76,9.23,9.23,0,0,1-1.61-1.08,4.72,4.72,0,0,1-1-1.16,4.84,4.84,0,0,1-.35-1.31c-.11-.65-.2-1.41-.28-2.28s-.14-1.8-.21-2.78-.11-1.91-.16-2.8-.08-1.67-.09-2.35,0-1.18,0-1.49c0-1.15,0-2.47.12-4s.23-3,.44-4.5a29.67,29.67,0,0,1,1-4.33,11.53,11.53,0,0,1,1.7-3.52,3.68,3.68,0,0,1,1.31-.89,18.29,18.29,0,0,1,2.3-.88c.89-.28,1.85-.55,2.87-.8s2-.46,3-.63,1.81-.31,2.59-.42a13.61,13.61,0,0,1,1.77-.16,3,3,0,0,1,1.33.3,3.36,3.36,0,0,1,1.07.82,3.94,3.94,0,0,1,.7,1.14,3.5,3.5,0,0,1,.26,1.33,2.82,2.82,0,0,1-.16,1,5.29,5.29,0,0,1-.49.93,6.79,6.79,0,0,1-2,1.44c-1,.56-2.08,1.12-3.24,1.66s-2.29,1-3.36,1.47-1.82.74-2.26.93c-.12.72-.26,1.44-.4,2.17a20.58,20.58,0,0,0-.3,2.21,27.3,27.3,0,0,1,3.26-1.39A10.2,10.2,0,0,1,99,19.17c2.2,0,3.31,1.09,3.31,3.27a3.14,3.14,0,0,1-.31,1.4,3.76,3.76,0,0,1-.79,1.07,5.44,5.44,0,0,1-1.12.81l-1.23.68a23.75,23.75,0,0,1-3.13,1.38l-3.26,1.14c-.07.25-.13.52-.19.81a4.43,4.43,0,0,0-.09.87,9.47,9.47,0,0,0,.09,1.3c.06.44.12.87.19,1.31l1.79-.61c.83-.28,1.69-.56,2.59-.84s1.77-.52,2.61-.72a9,9,0,0,1,1.87-.3,2.89,2.89,0,0,1,1.3.3,3.25,3.25,0,0,1,1,.79,4,4,0,0,1,.67,1.15A3.54,3.54,0,0,1,104.63,34.28Z"/><path class="cls-1" d="M129.48,17.07A11.25,11.25,0,0,1,128,22.86a16,16,0,0,1-4,4.52c.5.75,1,1.62,1.54,2.61A28.42,28.42,0,0,1,128,36.45a13.35,13.35,0,0,1,.39,3,5.05,5.05,0,0,1-.72,2.68,2.62,2.62,0,0,1-2.45,1.19,3,3,0,0,1-2.49-1.4,15.42,15.42,0,0,1-1.87-3.33c-.54-1.29-1-2.6-1.49-3.94a26.5,26.5,0,0,0-1.28-3.22c-.56.19-1.11.4-1.64.63s-1.07.46-1.63.68c0,.68-.08,1.62-.16,2.82a24,24,0,0,1-.51,3.57A10.24,10.24,0,0,1,113,42.25a2.46,2.46,0,0,1-2.19,1.31,2.69,2.69,0,0,1-2.38-1.26,8.21,8.21,0,0,1-1.19-3,20.62,20.62,0,0,1-.4-3.52c0-1.2,0-2.14,0-2.82,0-1.47,0-2.9.09-4.32s.09-2.85.09-4.31,0-2.67-.07-4-.07-2.69-.07-4.06V15.09c0-.48,0-1,.07-1.49s.1-1,.17-1.47a3.32,3.32,0,0,1,.32-1.12,4.69,4.69,0,0,1,2.12-1.86,24.75,24.75,0,0,1,3.64-1.56A34.24,34.24,0,0,1,117,6.51a15.44,15.44,0,0,1,2.82-.39A9.47,9.47,0,0,1,124,7a8.73,8.73,0,0,1,3,2.4,10.51,10.51,0,0,1,1.82,3.5A14.3,14.3,0,0,1,129.48,17.07Zm-8.62.66a2.7,2.7,0,0,0-.56-1.84,2.33,2.33,0,0,0-1.82-.63,6,6,0,0,0-1.89.32,12.28,12.28,0,0,0-1.75.75c.13,2.45.17,4.89.14,7.32a16,16,0,0,0,2-.84,9.15,9.15,0,0,0,1.89-1.26,7.29,7.29,0,0,0,1.42-1.68A4.09,4.09,0,0,0,120.86,17.73Z"/><path class="cls-1" d="M153.59,10.73a19.2,19.2,0,0,1-.42,3.76c-.28,1.38-.63,2.79-1,4.22s-.87,2.82-1.35,4.17-.91,2.57-1.28,3.66c-.25.68-.52,1.53-.82,2.54s-.64,2.08-1,3.2-.82,2.23-1.29,3.35a20.61,20.61,0,0,1-1.53,3A9.14,9.14,0,0,1,143,40.81a3.31,3.31,0,0,1-2.17.84,2.69,2.69,0,0,1-1.88-.89,10.55,10.55,0,0,1-1.73-2.26,26,26,0,0,1-1.54-3.08c-.48-1.13-.91-2.24-1.3-3.33s-.72-2.1-1-3-.46-1.65-.59-2.15q-.93-3.63-1.77-7.34a33.55,33.55,0,0,1-.84-7.44,18.5,18.5,0,0,1,.1-1.93,5.65,5.65,0,0,1,.46-1.84,3.63,3.63,0,0,1,1-1.38,3,3,0,0,1,1.89-.54,2.41,2.41,0,0,1,1.89,1.15,12,12,0,0,1,1.56,3,37.39,37.39,0,0,1,1.28,4c.39,1.5.76,3,1.1,4.41s.67,2.8,1,4.06a21.09,21.09,0,0,0,.93,3c.19-.62.46-1.53.82-2.72s.77-2.51,1.26-3.94,1-2.9,1.58-4.41a38.85,38.85,0,0,1,1.82-4.1,15.38,15.38,0,0,1,2-3A2.87,2.87,0,0,1,151,6.72a2.18,2.18,0,0,1,1.31.38,2.47,2.47,0,0,1,.79,1,4.93,4.93,0,0,1,.4,1.3A9.2,9.2,0,0,1,153.59,10.73Z"/><path class="cls-1" d="M177.84,34.7a20.38,20.38,0,0,1-.16,2.24,10.34,10.34,0,0,1-.63,2.49,6,6,0,0,1-1.26,2,2.81,2.81,0,0,1-2.1.81A3,3,0,0,1,171.1,41a8.33,8.33,0,0,1-1.23-3,21.25,21.25,0,0,1-.45-3.57c0-1.21-.08-2.17-.11-2.89q-3.36.55-6.63,1c-.06.71-.19,1.6-.39,2.66a15.36,15.36,0,0,1-.93,3,8.61,8.61,0,0,1-1.64,2.54,3.2,3.2,0,0,1-2.44,1.07,2.09,2.09,0,0,1-1.75-.81,5.78,5.78,0,0,1-1-1.94,10.35,10.35,0,0,1-.4-2.3c0-.8-.07-1.46-.07-2a32.59,32.59,0,0,1,.42-5.24c.28-1.73.61-3.44,1-5.15.19-.91.44-2,.75-3.18s.69-2.46,1.14-3.75A35.87,35.87,0,0,1,159,13.65a17.82,17.82,0,0,1,2.07-3.38,10.16,10.16,0,0,1,2.66-2.43A6.13,6.13,0,0,1,167,6.91a5.81,5.81,0,0,1,3.08.79,8.1,8.1,0,0,1,2.28,2.1,12.61,12.61,0,0,1,1.64,3,31.32,31.32,0,0,1,1.09,3.36c.3,1.13.54,2.24.75,3.33s.38,2.05.53,2.89q.62,3,1,6.14A46.2,46.2,0,0,1,177.84,34.7Zm-9-11.33c0-.37,0-1-.07-1.84a22.49,22.49,0,0,0-.3-2.57,8.84,8.84,0,0,0-.73-2.28,1.48,1.48,0,0,0-1.33-1c-.31,0-.6.21-.88.63a6.66,6.66,0,0,0-.75,1.58A19.5,19.5,0,0,0,164.2,20c-.17.78-.32,1.53-.44,2.24s-.22,1.36-.28,1.94-.11,1-.14,1.23c1.86-.15,3.7-.39,5.5-.7Z"/><path class="cls-1" d="M200.59,9.75a3,3,0,0,1-.91,2.13,9.17,9.17,0,0,1-2.19,1.67,15.08,15.08,0,0,1-2.63,1.19,21.12,21.12,0,0,1-2.24.66c-.25,2.39-.44,4.78-.58,7.15s-.21,4.77-.21,7.16q0,1.92.09,3.78c.06,1.24.09,2.49.09,3.73a11.36,11.36,0,0,1-.16,1.84,7.39,7.39,0,0,1-.56,1.89,4.2,4.2,0,0,1-1.09,1.49,2.59,2.59,0,0,1-1.73.61,2.71,2.71,0,0,1-1.93-.68,4.44,4.44,0,0,1-1.12-1.65,8.06,8.06,0,0,1-.54-2.08,16.4,16.4,0,0,1-.14-2c-.06-1.87-.11-3.74-.14-5.62s0-3.77,0-5.67c0-1.58,0-3.13,0-4.66s0-3.08,0-4.66c-.44.06-.88.11-1.33.14s-.91,0-1.37,0a11.58,11.58,0,0,1-1.47-.12,8.43,8.43,0,0,1-1.75-.42,4.42,4.42,0,0,1-1.45-.84,1.77,1.77,0,0,1-.6-1.38A3.27,3.27,0,0,1,177.72,11a9.76,9.76,0,0,1,2.8-1.82,22.59,22.59,0,0,1,3.78-1.31,38.76,38.76,0,0,1,4.1-.84c1.35-.2,2.6-.35,3.73-.44s2-.14,2.64-.14,1.21,0,1.88.07a6.83,6.83,0,0,1,1.89.4,3.5,3.5,0,0,1,1.47,1A2.61,2.61,0,0,1,200.59,9.75Z"/><path class="cls-1" d="M208.85,43.14a8.6,8.6,0,0,1-4.95-1.42,11.39,11.39,0,0,1-3.47-3.83,19,19,0,0,1-2.05-5.57,31.89,31.89,0,0,1-.68-6.67,30.93,30.93,0,0,1,.73-6.62A22.12,22.12,0,0,1,200.64,13a13.73,13.73,0,0,1,3.78-4.43,8.78,8.78,0,0,1,5.45-1.72A8.06,8.06,0,0,1,215,8.47a12,12,0,0,1,3.31,4.29,22.61,22.61,0,0,1,1.77,5.9,41.08,41.08,0,0,1,.53,6.53,31.7,31.7,0,0,1-.72,6.88,19.29,19.29,0,0,1-2.19,5.71,11.73,11.73,0,0,1-3.68,3.91A9.26,9.26,0,0,1,208.85,43.14Zm.56-26a2,2,0,0,0-1.52.7,5.67,5.67,0,0,0-1,1.84,11.68,11.68,0,0,0-.6,2.57,21,21,0,0,0-.19,2.86,25.64,25.64,0,0,0,.21,3.27,16.47,16.47,0,0,0,.63,2.94,6.64,6.64,0,0,0,1.05,2.1,1.89,1.89,0,0,0,1.51.79,1.84,1.84,0,0,0,1.64-1,9,9,0,0,0,.95-2.47,19.29,19.29,0,0,0,.47-3c.07-1,.11-1.88.11-2.57a22.8,22.8,0,0,0-.16-2.66,14,14,0,0,0-.54-2.58,6.26,6.26,0,0,0-1-2A1.89,1.89,0,0,0,209.41,17.12Z"/><path class="cls-1" d="M246,17.07a11.35,11.35,0,0,1-1.49,5.79,16.17,16.17,0,0,1-4,4.52c.5.75,1,1.62,1.54,2.61a28.22,28.22,0,0,1,1.43,3.15,26.18,26.18,0,0,1,1,3.31,12.86,12.86,0,0,1,.4,3,5.05,5.05,0,0,1-.72,2.68,2.63,2.63,0,0,1-2.45,1.19,3,3,0,0,1-2.5-1.4,15.41,15.41,0,0,1-1.86-3.33c-.55-1.29-1-2.6-1.49-3.94a26.32,26.32,0,0,0-1.29-3.22c-.56.19-1.1.4-1.63.63s-1.07.46-1.63.68c0,.68-.09,1.62-.16,2.82a22.76,22.76,0,0,1-.52,3.57,10,10,0,0,1-1.19,3.07,2.46,2.46,0,0,1-2.19,1.31,2.7,2.7,0,0,1-2.38-1.26,8.2,8.2,0,0,1-1.18-3,19.66,19.66,0,0,1-.4-3.52c0-1.2,0-2.14,0-2.82,0-1.47,0-2.9.1-4.32s.09-2.85.09-4.31,0-2.67-.07-4-.07-2.69-.07-4.06V15.09c0-.48,0-1,.07-1.49s.1-1,.16-1.47a3.1,3.1,0,0,1,.33-1.12A4.69,4.69,0,0,1,226,9.15a24.3,24.3,0,0,1,3.64-1.56,34.24,34.24,0,0,1,3.87-1.08,15.44,15.44,0,0,1,2.82-.39,9.46,9.46,0,0,1,4.19.88,8.68,8.68,0,0,1,3,2.4,10.49,10.49,0,0,1,1.81,3.5A14,14,0,0,1,246,17.07Zm-8.63.66a2.65,2.65,0,0,0-.56-1.84,2.3,2.3,0,0,0-1.81-.63,6,6,0,0,0-1.89.32,12.28,12.28,0,0,0-1.75.75q.18,3.68.14,7.32a15.85,15.85,0,0,0,2-.84,8.65,8.65,0,0,0,1.89-1.26,6.82,6.82,0,0,0,1.42-1.68A4,4,0,0,0,237.38,17.73Z"/><path class="cls-1" d="M263.78,9.94a3.23,3.23,0,0,1-.4,1.59,3.7,3.7,0,0,1-1.05,1.18,6.56,6.56,0,0,1-1.44.82,8.39,8.39,0,0,1-1.54.47q-.11,5.27-.4,10.16t-1,10.12h.28a7.19,7.19,0,0,1,1.47.16,3.94,3.94,0,0,1,1.31.56,3.1,3.1,0,0,1,.93,1,2.77,2.77,0,0,1,.35,1.42,2.8,2.8,0,0,1-.68,1.87,5.61,5.61,0,0,1-1.77,1.35,12.37,12.37,0,0,1-2.45.94,26,26,0,0,1-2.7.58c-.9.14-1.76.24-2.56.3s-1.47.09-2,.09-.84,0-1.38,0a6.36,6.36,0,0,1-1.54-.28,3.38,3.38,0,0,1-1.23-.7,1.63,1.63,0,0,1-.52-1.26,3.82,3.82,0,0,1,.4-1.75A5,5,0,0,1,247,37.13a5.25,5.25,0,0,1,1.47-1,7.84,7.84,0,0,1,1.65-.56c.22-1.71.42-3.41.61-5.11s.31-3.41.37-5.15.13-3.52.19-5.25.12-3.46.19-5.2c-.22,0-.42.06-.61.07l-.51,0a7.81,7.81,0,0,1-1.4-.14,5.06,5.06,0,0,1-1.4-.49,3.82,3.82,0,0,1-1.1-.87,1.93,1.93,0,0,1-.44-1.3,3.14,3.14,0,0,1,1.33-2.61A9.83,9.83,0,0,1,250.51,8a21,21,0,0,1,3.75-.77A29.63,29.63,0,0,1,257.34,7c.44,0,1,0,1.73.1a9.83,9.83,0,0,1,2.12.42A6.16,6.16,0,0,1,263,8.4,1.81,1.81,0,0,1,263.78,9.94Z"/><path class="cls-1" d="M24,77.92a19.34,19.34,0,0,1-1.68,7.9,23.26,23.26,0,0,1-4.5,6.74,21.56,21.56,0,0,1-6.58,4.68A18.4,18.4,0,0,1,3.31,99H3.22a1.61,1.61,0,0,1-1.38-.77,7.08,7.08,0,0,1-.91-1.93,15.32,15.32,0,0,1-.56-2.61c-.12-1-.21-1.91-.28-2.82S0,89.12,0,88.38V86.73c0-1.06,0-2.11.05-3.15s.07-2.09.14-3.15c0-.34,0-.84.07-1.51s.1-1.42.16-2.26S.56,74.94.65,74s.2-1.77.31-2.56.21-1.49.32-2.1a3.27,3.27,0,0,1,.4-1.24,5.39,5.39,0,0,1,1.86-1.81A13.22,13.22,0,0,1,6.27,65a18.5,18.5,0,0,1,3-.77A16.14,16.14,0,0,1,11.89,64a11.74,11.74,0,0,1,5.34,1.15A11,11,0,0,1,21,68.19a13.1,13.1,0,0,1,2.24,4.46A19.06,19.06,0,0,1,24,77.92Zm-7.84,1.35a6.33,6.33,0,0,0-.37-2.1,7.12,7.12,0,0,0-1-2,5.28,5.28,0,0,0-1.63-1.42A4.26,4.26,0,0,0,11,73.25a4.9,4.9,0,0,0-2,.47,1.54,1.54,0,0,0-.42.86,14.27,14.27,0,0,0-.3,1.75c-.08.69-.15,1.43-.21,2.24s-.1,1.58-.12,2.31,0,1.37,0,1.93,0,.94,0,1.12v1.38c0,.6,0,1.2.07,1.79s.1,1.11.17,1.54.17.65.32.65a4.44,4.44,0,0,0,2.78-1.09,13.09,13.09,0,0,0,2.49-2.68,15.49,15.49,0,0,0,1.8-3.31A8.32,8.32,0,0,0,16.13,79.27Z"/><path class="cls-1" d="M46.4,91.58a3.51,3.51,0,0,1-.47,1.72,6.7,6.7,0,0,1-2.19,1.87,35,35,0,0,1-3.83,2c-1.39.63-2.75,1.18-4,1.63a10.15,10.15,0,0,1-2.89.68,4.93,4.93,0,0,1-1.54-.31,12.33,12.33,0,0,1-1.77-.77,8.67,8.67,0,0,1-1.61-1.07A4.57,4.57,0,0,1,27,96.19a4.3,4.3,0,0,1-.35-1.3c-.11-.65-.2-1.41-.28-2.29s-.15-1.79-.21-2.77S26,87.92,26,87s-.08-1.67-.1-2.35,0-1.18,0-1.49c0-1.15,0-2.48.12-4s.22-3,.44-4.5a29.39,29.39,0,0,1,1-4.33,11,11,0,0,1,1.7-3.52A3.62,3.62,0,0,1,30.4,66a18.41,18.41,0,0,1,2.31-.89c.89-.28,1.84-.54,2.87-.79s2-.46,3-.63,1.81-.31,2.59-.42a13.33,13.33,0,0,1,1.77-.16,3,3,0,0,1,1.33.3,3.32,3.32,0,0,1,1.07.82,3.94,3.94,0,0,1,.7,1.14,3.5,3.5,0,0,1,.26,1.33,2.79,2.79,0,0,1-.17,1,5.35,5.35,0,0,1-.49.94,6.89,6.89,0,0,1-2,1.44c-1,.56-2.08,1.11-3.25,1.66s-2.28,1-3.35,1.47-1.83.74-2.26.93c-.13.71-.26,1.44-.4,2.17a20.58,20.58,0,0,0-.3,2.21,29,29,0,0,1,3.26-1.4,10.32,10.32,0,0,1,3.45-.65q3.31,0,3.31,3.26a3.1,3.1,0,0,1-.3,1.4A3.86,3.86,0,0,1,43,82.21,5.44,5.44,0,0,1,41.9,83l-1.24.68a22.34,22.34,0,0,1-3.12,1.37l-3.27,1.15q-.09.38-.18.81a3.81,3.81,0,0,0-.1.87,8.13,8.13,0,0,0,.1,1.3l.18,1.31,1.8-.61c.82-.28,1.68-.56,2.59-.84s1.77-.52,2.61-.72A9.18,9.18,0,0,1,43.13,88a2.94,2.94,0,0,1,1.31.31,3.18,3.18,0,0,1,1,.79,4.06,4.06,0,0,1,.68,1.14A3.6,3.6,0,0,1,46.4,91.58Z"/><path class="cls-1" d="M81.37,73.91a11.93,11.93,0,0,1-1.1,4.94,15.93,15.93,0,0,1-7.06,7.53,11.6,11.6,0,0,1-4.8,1.37c0,.56-.06,1.27-.07,2.13s-.07,1.75-.17,2.68-.22,1.86-.39,2.8A11.57,11.57,0,0,1,67,97.87a5.27,5.27,0,0,1-1.26,1.82,2.68,2.68,0,0,1-1.89.7,2.64,2.64,0,0,1-2.07-.86,5.8,5.8,0,0,1-1.17-2.08,12.18,12.18,0,0,1-.53-2.54c-.1-.88-.16-1.64-.19-2.26-.06-.9-.1-1.79-.12-2.66s0-1.75,0-2.65V85.07c0-1.1,0-2.36,0-3.77s0-2.89.07-4.43.08-3,.14-4.29.13-2.45.21-3.38a4.6,4.6,0,0,1,.3-1.64l.28-.21.52-.32.51-.3a2.92,2.92,0,0,1,.33-.19,28.19,28.19,0,0,1,4.71-2.1A15.5,15.5,0,0,1,72,63.55a8.59,8.59,0,0,1,3.89.87,9.37,9.37,0,0,1,3,2.28A10.1,10.1,0,0,1,80.72,70,12,12,0,0,1,81.37,73.91ZM73.3,75a3,3,0,0,0-.44-1.63,1.61,1.61,0,0,0-1.47-.7,4.65,4.65,0,0,0-1.77.35c-.59.23-1.14.47-1.63.72.09,1.09.17,2.14.25,3.17a23.85,23.85,0,0,1,0,3.17l1.63-.86a11.07,11.07,0,0,0,1.63-1.1,6,6,0,0,0,1.26-1.37A3.12,3.12,0,0,0,73.3,75Z"/><path class="cls-1" d="M104.73,92.46a3.19,3.19,0,0,1-1,2.2,9.85,9.85,0,0,1-2.47,1.86A20.59,20.59,0,0,1,97.92,98c-1.24.42-2.47.78-3.68,1.07s-2.36.52-3.43.68a19.58,19.58,0,0,1-2.54.23,11.66,11.66,0,0,1-1.89-.16,3.29,3.29,0,0,1-1.65-.72,2.48,2.48,0,0,1-.66-1.26c-.18-.66-.36-1.43-.53-2.33s-.32-1.88-.45-2.92-.22-2.06-.3-3-.14-1.91-.19-2.75-.07-1.5-.07-2c0-.78,0-1.72.07-2.82s.12-2.29.21-3.55.22-2.54.38-3.84.33-2.55.53-3.71a22.84,22.84,0,0,1,.75-3.15,9.19,9.19,0,0,1,1-2.19,2.66,2.66,0,0,1,2.24-1.26,2.22,2.22,0,0,1,1.59.63,4.68,4.68,0,0,1,1,1.63,11.6,11.6,0,0,1,.6,2.24c.14.82.24,1.64.31,2.45s.09,1.55.09,2.24v1.63q0,3.63-.16,7.2T91,89.53v1.82c1.4-.44,2.93-.85,4.57-1.24a20.47,20.47,0,0,1,4.71-.58,14.61,14.61,0,0,1,1.61.09,4.24,4.24,0,0,1,1.45.4,2.48,2.48,0,0,1,1,.88A2.69,2.69,0,0,1,104.73,92.46Z"/><path class="cls-1" d="M129.44,92a18.17,18.17,0,0,1-.16,2.24,10.34,10.34,0,0,1-.63,2.49,6,6,0,0,1-1.26,2,2.81,2.81,0,0,1-2.1.81,2.91,2.91,0,0,1-2.58-1.26,8.29,8.29,0,0,1-1.24-3,20.26,20.26,0,0,1-.44-3.57c0-1.21-.09-2.18-.12-2.89q-3.36.56-6.62,1c-.06.71-.2,1.6-.4,2.65a14.63,14.63,0,0,1-.93,3.06,8.59,8.59,0,0,1-1.63,2.54,3.22,3.22,0,0,1-2.45,1.07,2.09,2.09,0,0,1-1.75-.81,5.67,5.67,0,0,1-.95-1.94,10.34,10.34,0,0,1-.4-2.31c0-.79-.07-1.45-.07-2a32.59,32.59,0,0,1,.42-5.24c.28-1.73.6-3.45,1-5.16.18-.9.43-2,.74-3.17s.7-2.46,1.15-3.75A37,37,0,0,1,110.58,71a18.81,18.81,0,0,1,2.08-3.39,10.26,10.26,0,0,1,2.65-2.42,6.16,6.16,0,0,1,3.32-.93,5.77,5.77,0,0,1,3.07.79A8.27,8.27,0,0,1,124,67.1a13,13,0,0,1,1.63,3,30.66,30.66,0,0,1,1.1,3.36c.29,1.13.54,2.24.74,3.33s.38,2,.54,2.89c.4,2,.74,4.07,1,6.13A46.46,46.46,0,0,1,129.44,92Zm-9-11.33c0-.38,0-1-.07-1.84a18.75,18.75,0,0,0-.3-2.57,8.84,8.84,0,0,0-.72-2.28A1.5,1.5,0,0,0,118,73a1.15,1.15,0,0,0-.89.63,6.55,6.55,0,0,0-.74,1.59,18.82,18.82,0,0,0-.59,2.12c-.17.78-.32,1.52-.44,2.24s-.22,1.36-.28,1.93-.11,1-.14,1.24q2.81-.24,5.5-.7Z"/><path class="cls-1" d="M152.2,67.05a3,3,0,0,1-.91,2.12,9.35,9.35,0,0,1-2.19,1.68A16.34,16.34,0,0,1,146.46,72a18.65,18.65,0,0,1-2.24.65c-.24,2.4-.44,4.78-.58,7.16s-.21,4.77-.21,7.16c0,1.27,0,2.53.1,3.78s.09,2.48.09,3.73a12.61,12.61,0,0,1-.16,1.84,7.81,7.81,0,0,1-.56,1.89,4.32,4.32,0,0,1-1.1,1.49,2.57,2.57,0,0,1-1.73.6,2.72,2.72,0,0,1-1.93-.67A4.51,4.51,0,0,1,137,98a8.75,8.75,0,0,1-.54-2.07,16.4,16.4,0,0,1-.14-2c-.06-1.87-.11-3.74-.14-5.62s0-3.77,0-5.67c0-1.58,0-3.14,0-4.66s0-3.08,0-4.66c-.43.06-.87.11-1.32.14s-.91,0-1.38,0a13.75,13.75,0,0,1-1.47-.11,8.43,8.43,0,0,1-1.75-.42,4.44,4.44,0,0,1-1.44-.84,1.75,1.75,0,0,1-.61-1.38,3.3,3.3,0,0,1,1.1-2.45,9.82,9.82,0,0,1,2.79-1.81,23.24,23.24,0,0,1,3.78-1.31,38.76,38.76,0,0,1,4.1-.84c1.36-.2,2.6-.35,3.73-.44s2-.14,2.64-.14,1.22,0,1.89.07a6.83,6.83,0,0,1,1.89.39,3.69,3.69,0,0,1,1.47,1A2.68,2.68,0,0,1,152.2,67.05Z"/><path class="cls-1" d="M172.85,92a18.17,18.17,0,0,1-.16,2.24,10.34,10.34,0,0,1-.63,2.49,6,6,0,0,1-1.26,2,2.8,2.8,0,0,1-2.09.81,2.91,2.91,0,0,1-2.59-1.26,8.29,8.29,0,0,1-1.24-3,20.26,20.26,0,0,1-.44-3.57c-.05-1.21-.09-2.18-.12-2.89-2.24.37-4.44.7-6.62,1a24.31,24.31,0,0,1-.4,2.65,14.63,14.63,0,0,1-.93,3.06,8.59,8.59,0,0,1-1.63,2.54,3.22,3.22,0,0,1-2.45,1.07,2.1,2.1,0,0,1-1.75-.81,5.67,5.67,0,0,1-.95-1.94,10.34,10.34,0,0,1-.4-2.31c-.05-.79-.07-1.45-.07-2a32.59,32.59,0,0,1,.42-5.24q.42-2.59,1-5.16c.19-.9.43-2,.75-3.17s.69-2.46,1.14-3.75A37,37,0,0,1,154,71a18.81,18.81,0,0,1,2.08-3.39,10.3,10.3,0,0,1,2.66-2.42,6.1,6.1,0,0,1,3.31-.93,5.77,5.77,0,0,1,3.07.79,8.13,8.13,0,0,1,2.29,2.1,12.59,12.59,0,0,1,1.63,3,28.66,28.66,0,0,1,1.1,3.36c.29,1.13.54,2.24.74,3.33s.38,2,.54,2.89c.4,2,.75,4.07,1,6.13A48.16,48.16,0,0,1,172.85,92Zm-9-11.33c0-.38,0-1-.07-1.84a20.47,20.47,0,0,0-.31-2.57,8.47,8.47,0,0,0-.72-2.28,1.5,1.5,0,0,0-1.33-1,1.15,1.15,0,0,0-.89.63,7.4,7.4,0,0,0-.74,1.59,18.89,18.89,0,0,0-.58,2.12c-.18.78-.32,1.52-.45,2.24s-.21,1.36-.28,1.93-.11,1-.14,1.24c1.87-.16,3.7-.39,5.51-.7Z"/><path class="cls-1" d="M194.91,65.23a4.86,4.86,0,0,1-1.21,3.22,13.6,13.6,0,0,1-3,2.59,25.87,25.87,0,0,1-3.66,2c-1.28.56-2.38,1-3.31,1.4,0,.65,0,1.32-.05,2s-.08,1.37-.14,2.06a26.81,26.81,0,0,1,3.36-1.4,10.59,10.59,0,0,1,3.54-.66,4.06,4.06,0,0,1,2.22.56,2.18,2.18,0,0,1,.86,2,4,4,0,0,1-1.1,2.75,11.69,11.69,0,0,1-2.63,2.15,20.44,20.44,0,0,1-3.22,1.58c-1.12.44-2.07.78-2.84,1,0,1,0,2-.05,3s-.08,2-.14,3c0,.5-.09,1.12-.16,1.87a10.39,10.39,0,0,1-.47,2.16,5.43,5.43,0,0,1-1,1.82,2.1,2.1,0,0,1-1.68.77,2.06,2.06,0,0,1-1.68-.95,8.88,8.88,0,0,1-1.19-2.45,21.88,21.88,0,0,1-.79-3.34c-.2-1.22-.36-2.43-.47-3.61s-.17-2.27-.18-3.26,0-1.76,0-2.29,0-1,0-1.79,0-1.67,0-2.64.05-2,.1-3,.1-2.06.16-3,.15-1.78.26-2.51a6.36,6.36,0,0,1,.39-1.61,5.4,5.4,0,0,1,2.45-2,28,28,0,0,1,4.31-1.77,44.8,44.8,0,0,1,4.64-1.26,17.56,17.56,0,0,1,3.48-.49,7.88,7.88,0,0,1,1.09.07,3.06,3.06,0,0,1,1,.3,1.78,1.78,0,0,1,1,1.77Z"/><path class="cls-1" d="M205.82,100.44A8.66,8.66,0,0,1,200.88,99a11.28,11.28,0,0,1-3.47-3.83,19.12,19.12,0,0,1-2.06-5.57,32,32,0,0,1-.67-6.67,31.56,31.56,0,0,1,.72-6.62,21.81,21.81,0,0,1,2.22-6.06,13.82,13.82,0,0,1,3.77-4.43,8.81,8.81,0,0,1,5.46-1.73A8,8,0,0,1,212,65.77a11.71,11.71,0,0,1,3.31,4.29,22.24,22.24,0,0,1,1.77,5.9,39.86,39.86,0,0,1,.54,6.53,31.61,31.61,0,0,1-.72,6.87,19.92,19.92,0,0,1-2.19,5.72A11.75,11.75,0,0,1,211,99,9.26,9.26,0,0,1,205.82,100.44Zm.56-26a2,2,0,0,0-1.51.7A5.56,5.56,0,0,0,203.82,77a11.72,11.72,0,0,0-.61,2.56,22.93,22.93,0,0,0-.19,2.87,25.64,25.64,0,0,0,.21,3.27,16.35,16.35,0,0,0,.63,2.93,6.64,6.64,0,0,0,1,2.1,1.89,1.89,0,0,0,1.52.8,1.84,1.84,0,0,0,1.63-1A9.36,9.36,0,0,0,209,88a19.41,19.41,0,0,0,.46-3c.08-1,.12-1.88.12-2.56a25.07,25.07,0,0,0-.16-2.66,14.28,14.28,0,0,0-.54-2.59,6.54,6.54,0,0,0-1-2A1.85,1.85,0,0,0,206.38,74.42Z"/><path class="cls-1" d="M243,74.37a11.19,11.19,0,0,1-1.5,5.78,16,16,0,0,1-4,4.53,28.72,28.72,0,0,1,1.54,2.61,26.63,26.63,0,0,1,1.42,3.15,27.42,27.42,0,0,1,1,3.31,13.35,13.35,0,0,1,.39,3,5.05,5.05,0,0,1-.72,2.68,2.64,2.64,0,0,1-2.45,1.19,3,3,0,0,1-2.49-1.4,15.86,15.86,0,0,1-1.87-3.33c-.54-1.29-1-2.6-1.49-3.94a26.5,26.5,0,0,0-1.28-3.22c-.56.19-1.11.4-1.63.63s-1.08.46-1.64.68c0,.68-.08,1.62-.16,2.82a24,24,0,0,1-.51,3.56,10.2,10.2,0,0,1-1.19,3.08,2.46,2.46,0,0,1-2.19,1.31,2.69,2.69,0,0,1-2.38-1.26,8.19,8.19,0,0,1-1.19-3,20.51,20.51,0,0,1-.4-3.52c0-1.19,0-2.13,0-2.82,0-1.46,0-2.9.09-4.31s.09-2.85.09-4.31,0-2.68-.07-4-.07-2.69-.07-4.06V72.39c0-.48,0-1,.07-1.49s.1-1,.17-1.47a3.25,3.25,0,0,1,.32-1.12A4.69,4.69,0,0,1,223,66.45a24.76,24.76,0,0,1,3.64-1.57,34.14,34.14,0,0,1,3.87-1.07,15.67,15.67,0,0,1,2.82-.4,9.47,9.47,0,0,1,4.2.89,8.73,8.73,0,0,1,3,2.4,10.33,10.33,0,0,1,1.82,3.5A14.3,14.3,0,0,1,243,74.37Zm-8.63.66a2.73,2.73,0,0,0-.56-1.85,2.32,2.32,0,0,0-1.82-.63,5.79,5.79,0,0,0-1.89.33,12.79,12.79,0,0,0-1.75.75c.13,2.45.17,4.89.14,7.32a16,16,0,0,0,2-.84,9.15,9.15,0,0,0,1.89-1.26,7,7,0,0,0,1.42-1.68A4.11,4.11,0,0,0,234.36,75Z"/><path class="cls-1" d="M276.51,93.82a22.52,22.52,0,0,1-.39,2.37,14.74,14.74,0,0,1-.63,2.08,4,4,0,0,1-1,1.45,1.94,1.94,0,0,1-1.33.53q-.75,0-1.35-1.14a14.93,14.93,0,0,1-1.14-3c-.36-1.26-.69-2.68-1-4.27s-.56-3.19-.8-4.82-.42-3.23-.58-4.78-.28-2.91-.37-4.06c-.19,1.18-.41,2.5-.65,4s-.55,3-.89,4.46-.72,3-1.12,4.43a36.39,36.39,0,0,1-1.3,3.87,11.88,11.88,0,0,1-1.5,2.72,2.18,2.18,0,0,1-1.68,1,2.15,2.15,0,0,1-1.58-1.07,14.44,14.44,0,0,1-1.54-2.82,39.62,39.62,0,0,1-1.4-3.9c-.43-1.43-.84-2.87-1.21-4.31s-.7-2.81-1-4.1-.5-2.37-.65-3.24q0,1,0,2.16c0,.8,0,1.36,0,1.71,0,.15,0,.66,0,1.53s-.07,1.92-.17,3.13-.23,2.51-.42,3.89a23.54,23.54,0,0,1-.81,3.85,11.46,11.46,0,0,1-1.33,3,2.56,2.56,0,0,1-2,1.31,3.64,3.64,0,0,1-1.56-1.42,10.07,10.07,0,0,1-1-2.36,18.84,18.84,0,0,1-.65-2.89c-.16-1-.28-2-.38-3s-.14-1.89-.16-2.72,0-1.53,0-2.06c0-.93,0-2.1.16-3.52s.29-2.9.54-4.45.57-3.11,1-4.66A24.27,24.27,0,0,1,248,68.47a10.91,10.91,0,0,1,2-3,3.57,3.57,0,0,1,2.63-1.17,2.22,2.22,0,0,1,1.5.79,11.37,11.37,0,0,1,1.58,2.08A28.11,28.11,0,0,1,257.3,70c.5,1,1,2.12,1.42,3.19s.85,2.1,1.19,3.08.62,1.81.84,2.49q.38-1.11.93-2.61c.38-1,.79-2,1.24-3.1s.95-2.13,1.49-3.17a25,25,0,0,1,1.7-2.8,10.86,10.86,0,0,1,1.8-2,2.82,2.82,0,0,1,1.84-.77,3.74,3.74,0,0,1,2.8,1.21,9.91,9.91,0,0,1,2,3.15A22.78,22.78,0,0,1,275.77,73c.31,1.61.55,3.19.72,4.76s.28,3,.32,4.41.08,2.47.08,3.31v1.4c0,.59,0,1.25,0,2s-.05,1.54-.11,2.38S276.61,93,276.51,93.82Z"/><path class="cls-1" d="M303.74,92a18.17,18.17,0,0,1-.16,2.24,10.34,10.34,0,0,1-.63,2.49,6,6,0,0,1-1.26,2,2.81,2.81,0,0,1-2.1.81A2.91,2.91,0,0,1,297,98.29a8.29,8.29,0,0,1-1.24-3,20.26,20.26,0,0,1-.44-3.57c-.05-1.21-.09-2.18-.12-2.89q-3.36.56-6.62,1c-.06.71-.2,1.6-.4,2.65a14.63,14.63,0,0,1-.93,3.06,8.59,8.59,0,0,1-1.63,2.54,3.22,3.22,0,0,1-2.45,1.07,2.09,2.09,0,0,1-1.75-.81,5.67,5.67,0,0,1-.95-1.94,10.34,10.34,0,0,1-.4-2.31c-.05-.79-.07-1.45-.07-2a32.59,32.59,0,0,1,.42-5.24q.42-2.59,1-5.16c.18-.9.43-2,.74-3.17s.7-2.46,1.15-3.75A37,37,0,0,1,284.88,71,18.81,18.81,0,0,1,287,67.56a10.26,10.26,0,0,1,2.65-2.42,6.16,6.16,0,0,1,3.32-.93A5.77,5.77,0,0,1,296,65a8.13,8.13,0,0,1,2.29,2.1,13,13,0,0,1,1.63,3,30.66,30.66,0,0,1,1.1,3.36c.29,1.13.54,2.24.74,3.33s.38,2,.54,2.89c.4,2,.74,4.07,1,6.13A46.46,46.46,0,0,1,303.74,92Zm-9-11.33c0-.38,0-1-.07-1.84a18.75,18.75,0,0,0-.3-2.57,8.84,8.84,0,0,0-.72-2.28,1.5,1.5,0,0,0-1.33-1,1.15,1.15,0,0,0-.89.63,6.55,6.55,0,0,0-.74,1.59,18.82,18.82,0,0,0-.59,2.12c-.17.78-.31,1.52-.44,2.24s-.22,1.36-.28,1.93-.11,1-.14,1.24q2.81-.24,5.5-.7Z"/><path class="cls-1" d="M321.56,66.17a2.79,2.79,0,0,1-.68,1.86,5.86,5.86,0,0,1-1.61,1.31c-.56.34-1.13.7-1.72,1.09a11.63,11.63,0,0,0-1.64,1.31,6.48,6.48,0,0,0-1.21,1.61,4.25,4.25,0,0,0-.47,2,3.42,3.42,0,0,0,.47,1.77,10.54,10.54,0,0,0,1.14,1.57c.45.51,1,1,1.5,1.58a12.69,12.69,0,0,1,1.49,1.82A10.63,10.63,0,0,1,320,84.35a8.47,8.47,0,0,1,.47,2.94,8.59,8.59,0,0,1-.49,2.63,17.09,17.09,0,0,1-1.33,3,20.69,20.69,0,0,1-2,2.9,19.8,19.8,0,0,1-2.43,2.49,12.43,12.43,0,0,1-2.68,1.77,6.19,6.19,0,0,1-2.7.68,4.39,4.39,0,0,1-2.57-.79,2.75,2.75,0,0,1-1.12-2.38,3.85,3.85,0,0,1,.52-2,10.23,10.23,0,0,1,1.25-1.75,18.41,18.41,0,0,1,1.66-1.64,21.08,21.08,0,0,0,1.66-1.58,9.63,9.63,0,0,0,1.25-1.66A3.47,3.47,0,0,0,312,87.1a5,5,0,0,0-1-2.77c-.64-1-1.34-1.93-2.12-2.94a31,31,0,0,1-2.12-3.1,6.16,6.16,0,0,1-1-3.22,9.79,9.79,0,0,1,1.07-4.22,17.34,17.34,0,0,1,2.76-4.06,15.73,15.73,0,0,1,3.77-3.05,8.23,8.23,0,0,1,4.15-1.21,4.23,4.23,0,0,1,2.8,1A3.28,3.28,0,0,1,321.56,66.17Z"/><path class="cls-1" d="M134.34,118.66c3,0,5.32,1.57,5.32,4.8s-2.29,5-5.32,5h-2.13v5.77h-3.55V118.66Zm-1.13,7c1.39,0,2.71-.47,2.71-2.05s-1.32-2.08-2.71-2.08h-1v4.13Z"/><path class="cls-1" d="M155.28,121.78h-5.36v3.09h5.13V128h-5.13v3.13h5.36v3.11h-8.91V118.66h8.91Z"/><path class="cls-1" d="M168,118.66c2.88,0,5.07,1.57,5.07,4.63a4.44,4.44,0,0,1-3.19,4.5l5.36,6.43h-4.51L166,128.08v6.14h-3.55V118.66Zm-1.6,6.91c1.33,0,2.94-.1,2.94-2s-1.61-2-2.94-2H166v4.08Z"/><path class="cls-1" d="M189.53,118.66h3.55v10c0,3.85-2.11,5.81-6.08,5.81s-6.07-2-6.07-5.81v-10h3.55v9c0,2.6.79,3.36,2.52,3.36s2.53-.76,2.53-3.36Zm-4.75-2.84,1.06,1.45,4.48-2.6-1.71-2.17Z"/><path class="cls-2" d="M298.52,24.13c-1.13.81-10.5.81-11.63,0,0,0-2.94,2.66-1.5,7.52.78,2.64,1.36,4.43,2.55,5.71a6.05,6.05,0,0,0,4.77,2.32h0a6,6,0,0,0,4.76-2.31c1.19-1.28,1.77-3.07,2.55-5.72C301.47,26.79,298.52,24.13,298.52,24.13Z"/><rect class="cls-2" x="282.11" y="18.54" width="1.12" height="7.69" rx="0.56" transform="translate(136.26 -220.44) rotate(54.39)"/><path class="cls-2" d="M297.62,9.25l0,0a8.25,8.25,0,0,0-3.86-1.54,8.54,8.54,0,0,0-5.89,1.54,8,8,0,0,0-3.13,5,5.61,5.61,0,0,1,4.38-2.1,5.67,5.67,0,0,1,5.27,3.62h3.11a1.37,1.37,0,0,1,1.37,1.37v2.16a1.35,1.35,0,0,1-.43,1L297,21.56a1.38,1.38,0,0,1-.94.37h-2.57a1.31,1.31,0,0,1-.52-.11,5.62,5.62,0,0,1-7.12.52,3.67,3.67,0,0,0,1.7,1.33,29.49,29.49,0,0,0,5.17.46,29.45,29.45,0,0,0,5.16-.46c1.65-.55,2.79-2.83,3-4.42C301.41,15.64,300.7,11.54,297.62,9.25Z"/><path class="cls-2" d="M289,12.92a4.7,4.7,0,1,0,4.7,4.7A4.7,4.7,0,0,0,289,12.92Zm0,6.62A1.92,1.92,0,1,1,291,17.62,1.92,1.92,0,0,1,289,19.54Z"/><circle class="cls-2" cx="296.31" cy="17.62" r="0.77"/><path class="cls-1" d="M320,50.47,310,40.53a2.24,2.24,0,0,0-1.05-.6,23.57,23.57,0,1,0-2.94,2.59,2.4,2.4,0,0,0,.66,1.34l9.94,9.94A2.36,2.36,0,0,0,320,50.47Zm-28-7.33a19.56,19.56,0,1,1,19.56-19.56A19.56,19.56,0,0,1,292,43.14Z"/></g></g></svg>